<?xml version="1.0" encoding="UTF-8"?>
<svg id="_레이어_1" data-name="레이어 1" xmlns="http://www.w3.org/2000/svg" viewBox="0 0 101.57 32.62">
  <defs>
    <style>
      .cls-1 {
        fill: #2b57a6;
      }
    </style>
  </defs>
  <g>
    <polygon class="cls-1" points="20.61 28.47 18.78 31.65 1.06 .97 4.73 .97 20.61 28.47"/>
    <polygon class="cls-1" points="37.61 .97 35.78 4.15 31.45 4.15 19.74 24.44 17.9 21.26 27.78 4.15 8.02 4.15 6.19 .97 37.61 .97"/>
    <polygon class="cls-1" points="31.01 15.38 29.17 18.56 16.35 18.56 12.36 11.65 18.52 .97 22.19 .97 16.03 11.65 18.18 15.38 31.01 15.38"/>
  </g>
  <g>
    <path class="cls-1" d="m35.89,11.49h8v1.51h-3.09v8.52h-1.8v-8.52h-3.1v-1.51Z"/>
    <path class="cls-1" d="m44.44,14h1.72v1.25h.08c.13-.42.36-.76.7-1,.34-.24.72-.36,1.16-.36.26,0,.47.01.64.04v1.64c-.08-.03-.2-.05-.36-.08-.16-.02-.31-.04-.46-.04-.32,0-.61.07-.87.21s-.46.33-.61.58c-.15.25-.22.53-.22.85v4.44h-1.77v-7.53Z"/>
    <path class="cls-1" d="m50.18,12.8c-.16-.09-.29-.2-.38-.35-.09-.15-.14-.31-.14-.49s.05-.33.14-.48.22-.26.38-.35c.16-.09.33-.13.51-.13s.36.04.51.13c.16.09.28.2.37.35.09.15.14.31.14.48s-.05.34-.14.49c-.09.15-.22.27-.37.35-.16.09-.33.13-.51.13s-.35-.04-.51-.13Zm-.39,1.2h1.77v7.53h-1.77v-7.53Z"/>
    <path class="cls-1" d="m53.34,11.49h6.43v1.51h-4.63v2.74h4.19v1.51h-4.19v4.27h-1.8v-10.04Z"/>
    <path class="cls-1" d="m65.55,14h1.76v7.53h-1.71v-1.33h-.08c-.18.43-.47.78-.86,1.04-.39.26-.86.39-1.4.39-.49,0-.93-.11-1.31-.33-.38-.22-.67-.55-.89-.97-.21-.42-.32-.93-.33-1.52v-4.8h1.77v4.52c0,.31.06.59.18.83.12.24.28.42.5.55s.46.19.75.19c.27,0,.53-.07.77-.2.25-.13.45-.33.6-.59.16-.26.23-.57.23-.94v-4.37Z"/>
    <path class="cls-1" d="m70.78,21.52h-1.77v-10.04h1.77v10.04Z"/>
    <path class="cls-1" d="m74.24,21.52h-1.77v-10.04h1.77v10.04Z"/>
    <path class="cls-1" d="m76.02,11.49h1.8v4.62h.14l3.92-4.62h2.2l-3.88,4.51,3.92,5.53h-2.18l-3.01-4.31-1.12,1.32v2.99h-1.8v-10.04Z"/>
    <path class="cls-1" d="m86.01,12.8c-.16-.09-.29-.2-.38-.35-.09-.15-.14-.31-.14-.49s.05-.33.14-.48.22-.26.38-.35c.16-.09.33-.13.51-.13s.36.04.51.13c.16.09.28.2.37.35.09.15.14.31.14.48s-.05.34-.14.49c-.09.15-.22.27-.37.35-.16.09-.33.13-.51.13s-.35-.04-.51-.13Zm-.39,1.2h1.77v7.53h-1.77v-7.53Z"/>
    <path class="cls-1" d="m89.09,14h1.69v1.28h.1c.15-.43.41-.77.77-1.01.36-.24.79-.36,1.29-.36s.94.12,1.29.36c.35.24.6.58.75,1.01h.08c.17-.42.45-.75.85-1,.4-.25.87-.37,1.41-.37.46,0,.87.1,1.22.29s.63.49.82.87.29.85.29,1.4v5.06h-1.76v-4.78c0-.45-.12-.79-.36-1.02-.24-.23-.55-.34-.93-.34-.43,0-.77.13-1.01.4-.24.27-.36.61-.36,1.04v4.7h-1.72v-4.85c0-.25-.05-.48-.16-.68s-.26-.35-.45-.45c-.19-.11-.41-.16-.66-.16s-.49.07-.7.2c-.21.13-.38.32-.5.55-.12.24-.19.51-.19.81v4.57h-1.77v-7.53Z"/>
  </g>
</svg>