<?xml version="1.0" encoding="UTF-8"?>
<svg id="_레이어_1" data-name="레이어 1" xmlns="http://www.w3.org/2000/svg" viewBox="0 0 1080 1080">
  <defs>
    <style>
      .cls-1 {
        fill: #1a1a1a;
      }

      .cls-1, .cls-2 {
        stroke-width: 0px;
      }

      .cls-2 {
        fill: #fff;
      }
    </style>
  </defs>
  <g>
    <path class="cls-1" d="M12,426.35h84.42l-42,350.12C19.55,705.05,0,624.82,0,540c0-38.98,4.13-77.01,12-113.65Z"/>
    <path class="cls-1" d="M40.5,334.44c21.07-51.14,49.76-98.34,84.68-140.17l-17.39,140.17H40.5Z"/>
    <path class="cls-1" d="M866.67,110c-43.83,11.18-71.18,49.19-80.41,126.33l-51.63,433.73h-81.58l66.09-566.96-115.66,19.62-74.41,640.49h-66.77l52.5-438.44c14.62-120.66-37.01-159.33-136.55-159.33-23.09,0-65.25,2.93-94,13.97l-9.58,84.26c15.17-2.69,37.68-7.47,63.68-7.47,57.75,0,69.59,24.19,63.04,80.62l-51.18,426.39h-137.81l-10.9,92.13h137.81l-21.33,177.02c-15-6.77-29.63-14.2-43.85-22.27l10.24-83.93c-15.49,3.1-38.22,7.24-64.03,7.24-57.82,0-69.18-23.76-62.98-80.57l50.6-426.5h138.37l10.34-91.9h-137.36l30.61-250C333.72,30.99,433.25,0,540.01,0c122.76,0,235.96,40.97,326.66,109.99Z"/>
    <path class="cls-1" d="M782.14,986.07h62.27c-86.65,59.27-191.48,93.93-304.4,93.93-39.59,0-78.19-4.26-115.36-12.37l25.92-212.27h67.82l-9.91,85.27-10.33,91.9h112.55l3.1-29.93,7.24-61.97,4.12-29.95,16.54-147.68h166.26l-17.55,147.68-3.1,29.95-5.16,45.44Z"/>
    <path class="cls-1" d="M1080,540c0,160.21-69.77,304.12-180.58,403l3.54-32.32,17.55-147.68,10.34-92.93h-84.68l47.49-394.49c6.92-54.49,22.43-75.72,73.85-65.5,70.54,91.24,112.48,205.68,112.48,329.92Z"/>
  </g>
  <g>
    <path class="cls-2" d="M157.36,852.84c-6.19,56.81,5.16,80.57,62.98,80.57,25.81,0,48.54-4.13,64.03-7.24l-10.24,83.93c-94.82-53.72-171.77-135.3-219.72-233.62v-.02l42-350.12H12c6.79-31.76,16.38-62.5,28.5-91.9h67.29l17.39-140.17c35.6-42.7,77.69-79.8,124.75-109.83l-30.61,250h137.36l-10.34,91.9h-138.37l-50.6,426.5Z"/>
    <path class="cls-2" d="M893.67,275.58l-47.49,394.49h84.68l-10.34,92.93-17.55,147.68-3.54,32.32-55.01,43.06h-62.27l5.16-45.44,3.1-29.95,17.55-147.68h-166.26l-16.54,147.68-4.12,29.95-7.24,61.97-3.1,29.93h-112.55l10.33-91.9,9.91-85.27h-67.82l-25.92,212.27c-37.12-8.06-72.82-19.95-106.66-35.25l21.33-177.02h-137.81l10.9-92.13h137.81l51.18-426.39c6.56-56.43-5.29-80.62-63.04-80.62-26.01,0-48.51,4.78-63.68,7.47l9.58-84.26c28.74-11.04,70.9-13.97,94-13.97,99.54,0,151.17,38.67,136.55,159.33l-52.5,438.44h66.77l74.41-640.49,115.66-19.62-66.09,566.96h81.58l51.63-433.73c9.23-77.15,36.58-115.15,80.41-126.33,37.85,28.78,71.79,62.46,100.85,100.08-51.42-10.22-66.93,11.01-73.85,65.5Z"/>
  </g>
</svg>