<?xml version="1.0" encoding="UTF-8"?>
<svg id="_레이어_1" data-name="레이어 1" xmlns="http://www.w3.org/2000/svg" viewBox="0 0 3599.22 930.83">
  <defs>
    <style>
      .cls-1, .cls-2 {
        stroke-width: 0px;
      }

      .cls-2 {
        fill: none;
      }
    </style>
  </defs>
  <g>
    <path class="cls-1" d="M892.83,781.01c-8.18,0-14.3-2.31-18.35-6.93-4.06-4.62-5.47-10.9-4.26-18.84l6.32-39.75c1.3-8.1,4.62-14.41,9.96-18.91,5.35-4.5,12.28-6.74,20.79-6.74,5.27,0,9.73,1.07,13.38,3.22,3.65,2.14,6.28,5.16,7.9,9.06,1.61,3.89,2.02,8.35,1.21,13.37h-12.03c.73-4.54,0-8.16-2.19-10.88-2.19-2.72-5.52-4.08-9.97-4.08s-8.35,1.36-11.43,4.08c-3.08,2.72-4.94,6.34-5.59,10.88l-6.32,39.75c-.73,4.62,0,8.29,2.19,11,2.2,2.72,5.55,4.08,10.09,4.08s8.33-1.36,11.37-4.08c3.04-2.71,4.92-6.38,5.65-11h12.04c-1.38,8.18-4.74,14.53-10.09,19.03-5.35,4.5-12.24,6.74-20.67,6.74Z"/>
    <path class="cls-1" d="M964.8,781.01c-8.02,0-14.02-2.33-17.99-6.99-3.97-4.66-5.35-10.92-4.14-18.78l2.8-17.87c1.22-8.1,4.48-14.4,9.79-18.9,5.3-4.5,12.17-6.75,20.6-6.75s14.04,2.31,18.05,6.93c4.02,4.62,5.41,10.86,4.2,18.72l-2.92,17.87c-1.3,8.18-4.6,14.53-9.91,19.03-5.31,4.5-12.13,6.74-20.48,6.74ZM966.49,770.31c4.54,0,8.27-1.28,11.19-3.83,2.92-2.55,4.74-6.3,5.47-11.24l2.8-17.87c.73-4.86.08-8.59-1.95-11.18-2.02-2.59-5.3-3.89-9.84-3.89s-8.27,1.3-11.19,3.89c-2.92,2.6-4.74,6.32-5.47,11.18l-2.8,17.87c-.73,4.94-.09,8.69,1.94,11.24s5.31,3.83,9.85,3.83Z"/>
    <path class="cls-1" d="M1008.43,779.79l10.58-66.86h10.21l-1.34,9.12h.24c.82-3.08,2.38-5.57,4.68-7.48,2.31-1.9,5-2.86,8.08-2.86s5.37.88,7.11,2.62c1.74,1.74,2.77,4.11,3.1,7.11.98-2.92,2.63-5.26,4.98-7.05s5.06-2.68,8.14-2.68c4.22,0,7.38,1.6,9.49,4.8,2.1,3.2,2.71,7.35,1.82,12.46l-8.02,50.81h-10.94l7.9-50.69c.4-2.51.12-4.52-.85-6.02-.98-1.5-2.51-2.25-4.62-2.25s-3.89.73-5.35,2.19-2.35,3.48-2.68,6.08l-8.14,50.69h-9.73l7.9-50.69c.4-2.51.15-4.52-.79-6.02-.93-1.5-2.45-2.25-4.56-2.25s-3.91.73-5.41,2.19c-1.49,1.46-2.41,3.48-2.73,6.08l-8.15,50.69h-10.94Z"/>
    <path class="cls-1" d="M1081.62,801.68l14.1-88.74h11.92l-2.07,12.88c1.37-4.45,3.83-7.92,7.35-10.39s7.96-3.71,13.31-3.71c6.49,0,11.37,2.29,14.65,6.87,3.28,4.58,4.35,10.64,3.22,18.18l-3.04,19.09c-1.22,8.02-4.09,14.22-8.63,18.6-4.54,4.38-10.3,6.56-17.26,6.56-4.86,0-8.73-1.27-11.61-3.83s-4.32-5.98-4.32-10.27h-.24l-2.19,15.44-3.17,19.33h-12.03ZM1112.73,770.55c4.38,0,7.98-1.15,10.82-3.46,2.83-2.31,4.66-6.06,5.47-11.24l3.04-18.97c.82-5.19.16-8.94-1.94-11.24-2.11-2.31-5.4-3.47-9.85-3.47s-7.92,1.34-10.88,4.01c-2.96,2.68-4.8,6.44-5.53,11.31l-2.8,17.75c-.73,4.86-.06,8.63,2.01,11.3,2.07,2.68,5.29,4.01,9.67,4.01Z"/>
    <path class="cls-1" d="M1183.47,781.01c-7.87,0-13.76-2.31-17.69-6.93-3.93-4.62-5.29-10.9-4.08-18.84l6.69-42.3h12.03l-6.68,42.3c-.73,4.86-.08,8.61,1.95,11.24,2.02,2.63,5.18,3.95,9.48,3.95s8.04-1.32,11-3.95c2.96-2.63,4.8-6.38,5.53-11.24l6.68-42.3h12.04l-6.68,42.3c-1.3,8.18-4.58,14.53-9.85,19.03-5.27,4.5-12.08,6.74-20.42,6.74Z"/>
    <path class="cls-1" d="M1263.45,779.79c-5.75,0-10.06-1.66-12.95-4.98-2.87-3.32-3.87-7.74-2.98-13.25l5.96-37.68h-18.97l1.71-10.94h19.08l3.04-18.84h12.04l-3.04,18.84h27.1l-1.7,10.94h-27.23l-5.95,37.56c-.33,2.19.04,3.97,1.09,5.35,1.06,1.38,2.63,2.07,4.74,2.07h19.57l-1.7,10.94h-19.82Z"/>
    <path class="cls-1" d="M1329.46,781.01c-8.02,0-14.1-2.39-18.23-7.17-4.14-4.78-5.56-11.3-4.26-19.57l2.55-15.8c1.38-8.51,4.78-15.09,10.21-19.75,5.43-4.66,12.36-6.99,20.79-6.99,5.18,0,9.64.94,13.38,2.8,3.72,1.87,6.48,4.44,8.26,7.72,1.78,3.28,2.35,7.03,1.7,11.24-.89,5.35-3.08,9.38-6.56,12.09s-7.98,4.07-13.49,4.07h-24.31l-.85,5.59c-.82,4.86-.09,8.67,2.19,11.43,2.27,2.75,5.71,4.13,10.33,4.13,3.81,0,7.1-.73,9.85-2.19s4.62-3.48,5.59-6.08h11.91c-1.7,5.92-5.09,10.48-10.15,13.68-5.06,3.2-11.37,4.8-18.9,4.8ZM1320.95,740.53h23.59c1.78,0,3.32-.52,4.62-1.58,1.3-1.05,2.14-2.84,2.56-5.35.57-3.65-.33-6.58-2.68-8.81-2.35-2.23-5.71-3.35-10.09-3.35-4.79,0-8.72,1.38-11.79,4.14-3.09,2.75-4.98,6.68-5.71,11.79l-.49,3.16Z"/>
    <path class="cls-1" d="M1379.3,779.79l10.57-66.86h11.92l-2.07,12.88h.24c1.3-4.38,3.71-7.82,7.23-10.33,3.53-2.51,7.88-3.77,13.08-3.77,6.88,0,11.89,2.13,15.01,6.38,3.12,4.26,4.08,10.23,2.86,17.93l-.97,5.83h-12.04l.85-5.71c1.54-9.32-2.27-13.98-11.42-13.98-4.62,0-8.33,1.34-11.13,4.01-2.8,2.68-4.6,6.49-5.41,11.43l-6.69,42.18h-12.03Z"/>
    <path class="cls-1" d="M1540.37,779.79l-8.63-88.74h12.16l5.23,59.69c.33,3.81.58,7.49.79,11.06.21,3.57.3,6.28.3,8.15.57-1.87,1.46-4.58,2.68-8.15,1.22-3.56,2.59-7.25,4.14-11.06l24.07-59.69h12.4l-36.95,88.74h-16.16Z"/>
    <path class="cls-1" d="M1594.58,779.79l1.7-10.94h23.59l7.17-44.98h-20.67l1.83-10.94h32.34l-8.76,55.92h22.01l-1.7,10.94h-57.5ZM1635.91,701.14c-2.84,0-4.92-.71-6.26-2.13-1.33-1.42-1.84-3.34-1.52-5.77.41-2.51,1.52-4.5,3.35-5.95s4.11-2.19,6.87-2.19,4.94.73,6.31,2.19c1.38,1.46,1.86,3.44,1.46,5.95-.4,2.43-1.52,4.36-3.34,5.77-1.83,1.42-4.12,2.13-6.87,2.13Z"/>
    <path class="cls-1" d="M1691.59,780.77c-7.53,0-13.14-1.7-16.83-5.1-3.69-3.41-5.09-8.18-4.2-14.35h11.92c-.41,2.92.3,5.21,2.13,6.87,1.82,1.66,4.68,2.49,8.56,2.49h5.35c3.89,0,7.05-.85,9.48-2.55,2.43-1.7,3.89-4.09,4.38-7.17.89-5.35-1.3-8.39-6.56-9.12l-17.5-2.56c-4.7-.73-8.09-2.69-10.15-5.89-2.07-3.2-2.74-7.35-2.01-12.46.97-6.16,3.71-10.86,8.2-14.1,4.5-3.24,10.48-4.86,17.93-4.86h5.47c6.73,0,11.93,1.6,15.61,4.8,3.69,3.2,5.25,7.52,4.68,12.95h-12.04c.16-2.27-.63-4.15-2.37-5.65-1.74-1.5-4.24-2.25-7.48-2.25h-5.47c-3.65,0-6.56.81-8.75,2.43s-3.53,3.81-4.02,6.56c-.73,4.46,1.1,6.97,5.47,7.54l16.4,2.43c11.51,1.54,16.25,8.27,14.23,20.18-2.11,13.21-11.14,19.81-27.1,19.81h-5.35Z"/>
    <path class="cls-1" d="M1740.46,779.79l1.7-10.94h23.59l7.17-44.98h-20.67l1.83-10.94h32.34l-8.76,55.92h22.01l-1.7,10.94h-57.5ZM1781.78,701.14c-2.84,0-4.92-.71-6.26-2.13-1.33-1.42-1.84-3.34-1.52-5.77.41-2.51,1.52-4.5,3.35-5.95s4.11-2.19,6.87-2.19,4.94.73,6.31,2.19c1.38,1.46,1.86,3.44,1.46,5.95-.4,2.43-1.52,4.36-3.34,5.77-1.83,1.42-4.12,2.13-6.87,2.13Z"/>
    <path class="cls-1" d="M1840.01,781.01c-8.02,0-14.02-2.33-17.99-6.99-3.97-4.66-5.35-10.92-4.14-18.78l2.8-17.87c1.22-8.1,4.48-14.4,9.79-18.9,5.3-4.5,12.17-6.75,20.6-6.75s14.04,2.31,18.05,6.93c4.02,4.62,5.41,10.86,4.2,18.72l-2.92,17.87c-1.3,8.18-4.6,14.53-9.91,19.03-5.31,4.5-12.13,6.74-20.48,6.74ZM1841.7,770.31c4.54,0,8.27-1.28,11.19-3.83s4.74-6.3,5.47-11.24l2.8-17.87c.73-4.86.08-8.59-1.95-11.18-2.02-2.59-5.3-3.89-9.84-3.89s-8.27,1.3-11.19,3.89c-2.92,2.6-4.74,6.32-5.47,11.18l-2.8,17.87c-.73,4.94-.09,8.69,1.94,11.24,2.02,2.55,5.31,3.83,9.85,3.83Z"/>
    <path class="cls-1" d="M1887.41,779.79l10.58-66.86h11.92l-2.07,12.76h.24c1.22-4.38,3.59-7.8,7.11-10.27s7.84-3.71,12.95-3.71c6.64,0,11.61,2.11,14.89,6.32,3.29,4.21,4.36,9.89,3.23,17.02l-7.05,44.73h-12.04l6.81-42.79c.73-4.86.08-8.59-1.95-11.18-2.02-2.59-5.15-3.89-9.36-3.89s-7.92,1.36-10.88,4.07-4.84,6.5-5.65,11.36l-6.68,42.43h-12.04Z"/>
    <path class="cls-1" d="M2048.84,780.89c-7.13,0-12.52-2.13-16.16-6.38-3.65-4.25-4.91-9.86-3.78-16.83l1.1-7.3c1.13-6.56,3.83-11.81,8.08-15.74,4.26-3.93,9.54-5.98,15.86-6.14l-2.56-4.14c-1.7-2.67-2.99-5.29-3.89-7.84-.89-2.55-1.18-4.96-.85-7.23.89-5.75,3.59-10.43,8.08-14.04s9.95-5.41,16.35-5.41c4.45,0,8.25.99,11.37,2.98,3.11,1.99,5.36,4.74,6.74,8.27,1.37,3.53,1.7,7.52.97,11.97h-11.55c.65-3.89.12-7.05-1.58-9.48s-4.21-3.65-7.53-3.65c-2.92,0-5.41.89-7.48,2.67-2.07,1.78-3.3,4.14-3.71,7.05-.49,2.92.16,5.83,1.95,8.75l17.87,30.02,12.52-13.01h13.86l-20.79,21.52,13.86,22.85h-12.28l-8.87-14.83-5.95,5.83c-6.8,6.73-14.02,10.09-21.64,10.09ZM2051.03,770.55c2.35,0,4.45-.63,6.32-1.88,1.86-1.25,3.81-2.86,5.83-4.8l7.53-7.17-11.18-18.97h-4.02c-3.65,0-6.7,1.14-9.17,3.41-2.48,2.27-4.03,5.35-4.68,9.24l-1.09,7.3c-.65,3.89-.03,7.01,1.88,9.36s4.76,3.52,8.57,3.52Z"/>
    <path class="cls-1" d="M2205.16,781.01c-8.67,0-15.23-2.29-19.69-6.87-4.45-4.58-6.07-10.88-4.86-18.9h12.04c-.73,4.7.21,8.39,2.8,11.06,2.59,2.67,6.4,4.01,11.43,4.01s8.95-1.38,12.28-4.14c3.32-2.75,5.35-6.36,6.07-10.82.49-3.4,0-6.4-1.46-9-1.46-2.59-3.81-4.38-7.05-5.35l-12.52-3.53c-5.51-1.62-9.6-4.52-12.28-8.69-2.68-4.17-3.57-9.18-2.68-15.01,1.22-7.54,4.4-13.41,9.55-17.63,5.14-4.21,11.81-6.32,19.99-6.32,5.1,0,9.46,1.01,13.07,3.04,3.61,2.03,6.26,4.82,7.96,8.39,1.71,3.57,2.19,7.66,1.46,12.28h-12.03c.64-3.89-.15-7.05-2.37-9.48-2.23-2.43-5.46-3.65-9.67-3.65s-7.8,1.21-10.76,3.65-4.72,5.59-5.29,9.48c-.57,3.16-.16,5.86,1.22,8.09,1.37,2.23,3.56,3.75,6.56,4.56l12.76,3.77c5.76,1.62,9.99,4.68,12.71,9.18,2.71,4.5,3.59,9.91,2.62,16.23-1.3,8.11-4.74,14.41-10.34,18.91-5.59,4.5-12.76,6.74-21.52,6.74Z"/>
    <path class="cls-1" d="M2251,779.79l1.7-10.94h23.59l7.17-44.98h-20.67l1.83-10.94h32.34l-8.76,55.92h22.01l-1.7,10.94h-57.5ZM2292.33,701.14c-2.84,0-4.92-.71-6.26-2.13-1.33-1.42-1.84-3.34-1.52-5.77.41-2.51,1.52-4.5,3.35-5.95s4.11-2.19,6.87-2.19,4.94.73,6.31,2.19c1.38,1.46,1.86,3.44,1.46,5.95-.4,2.43-1.52,4.36-3.34,5.77-1.83,1.42-4.12,2.13-6.87,2.13Z"/>
    <path class="cls-1" d="M2330.13,801.68l1.71-10.7h18.84c3.65,0,6.73-1.03,9.24-3.1,2.51-2.06,4.05-4.88,4.62-8.45l.85-5.59,2.07-11.54c-1.46,4.13-3.93,7.33-7.41,9.6s-7.66,3.41-12.52,3.41c-6.89,0-11.98-2.21-15.26-6.63-3.28-4.41-4.32-10.47-3.1-18.17l2.19-13.74c1.13-7.7,4.08-13.8,8.81-18.3,4.74-4.5,10.56-6.75,17.45-6.75,4.69,0,8.43,1.14,11.18,3.41,2.75,2.27,4.26,5.39,4.5,9.36h.12l1.83-11.55h11.79l-10.57,66.61c-1.06,6.81-4.06,12.2-9,16.17-4.94,3.97-11.1,5.96-18.47,5.96h-18.85ZM2352.86,765.21c4.3,0,7.92-1.34,10.88-4.02,2.96-2.67,4.8-6.44,5.53-11.3l1.94-12.52c.73-4.78.06-8.51-2-11.18-2.07-2.67-5.25-4.01-9.55-4.01s-8.1,1.28-10.94,3.83c-2.83,2.55-4.62,6.02-5.35,10.39l-2.31,14.59c-.65,4.38.03,7.84,2.06,10.39s5.27,3.83,9.73,3.83Z"/>
    <path class="cls-1" d="M2397.96,779.79l10.58-66.86h11.92l-2.07,12.76h.24c1.22-4.38,3.59-7.8,7.11-10.27s7.84-3.71,12.95-3.71c6.64,0,11.61,2.11,14.89,6.32,3.29,4.21,4.36,9.89,3.23,17.02l-7.05,44.73h-12.04l6.81-42.79c.73-4.86.08-8.59-1.95-11.18-2.02-2.59-5.15-3.89-9.36-3.89s-7.92,1.36-10.88,4.07-4.84,6.5-5.65,11.36l-6.68,42.43h-12.04Z"/>
    <path class="cls-1" d="M2489.85,781.01c-3.97,0-7.34-1.05-10.09-3.16-2.76-2.11-4.68-5.04-5.77-8.82-1.1-3.77-1.28-8.12-.55-13.07l3.04-19.21c.81-4.94,2.39-9.3,4.74-13.07,2.35-3.77,5.23-6.71,8.63-8.82,3.4-2.11,7.09-3.16,11.06-3.16,4.54,0,8.08,1.28,10.64,3.83,2.55,2.55,3.78,5.94,3.71,10.15h.24l1.83-12.76h12.03l-8.02,50.69c-.24,1.62.06,2.92.92,3.89.85.97,2.04,1.46,3.59,1.46h5.47l-1.7,10.82h-6.08c-4.21,0-7.43-1.32-9.66-3.95-2.23-2.63-3.02-5.98-2.37-10.03-1.54,4.62-4.24,8.31-8.09,11.06-3.84,2.75-8.37,4.13-13.55,4.13ZM2495.69,770.55c3.81,0,7.07-1.38,9.78-4.13,2.72-2.75,4.44-6.48,5.16-11.18l2.8-17.87c.73-4.62.16-8.31-1.7-11.06s-4.66-4.14-8.39-4.14-7.17,1.38-9.84,4.14c-2.68,2.75-4.38,6.44-5.1,11.06l-2.8,17.87c-.65,4.7-.09,8.43,1.7,11.18s4.58,4.13,8.39,4.13Z"/>
    <path class="cls-1" d="M2579.56,779.79c-6.08,0-10.66-1.78-13.74-5.35-3.08-3.56-4.14-8.31-3.16-14.22l9.23-58.23h-22.85l1.7-10.94h34.88l-10.94,69.04c-.48,2.68-.1,4.8,1.16,6.38,1.25,1.58,3.17,2.37,5.77,2.37h20.3l-1.7,10.94h-20.67Z"/>
    <path class="cls-1" d="M2689.69,779.79l14.1-88.74h28.81c8.43,0,14.77,2.39,19.02,7.17,4.26,4.78,5.77,11.23,4.56,19.33-.9,5.35-2.8,9.99-5.71,13.92-2.92,3.93-6.61,6.99-11.07,9.18-4.45,2.19-9.52,3.28-15.19,3.28h-16.77l-5.71,35.86h-12.04ZM2709.14,733.12h16.78c4.62,0,8.56-1.42,11.85-4.26,3.29-2.84,5.29-6.61,6.01-11.3.73-4.78-.08-8.59-2.43-11.43s-5.83-4.26-10.46-4.26h-16.77l-4.98,31.24Z"/>
    <path class="cls-1" d="M2765.06,779.79l10.57-66.86h11.92l-2.07,12.88h.24c1.3-4.38,3.71-7.82,7.23-10.33,3.53-2.51,7.88-3.77,13.08-3.77,6.88,0,11.89,2.13,15.01,6.38,3.12,4.26,4.08,10.23,2.86,17.93l-.97,5.83h-12.04l.85-5.71c1.54-9.32-2.27-13.98-11.42-13.98-4.62,0-8.33,1.34-11.13,4.01-2.8,2.68-4.6,6.49-5.41,11.43l-6.69,42.18h-12.03Z"/>
    <path class="cls-1" d="M2861.1,781.01c-8.02,0-14.02-2.33-17.99-6.99-3.97-4.66-5.35-10.92-4.14-18.78l2.8-17.87c1.22-8.1,4.48-14.4,9.79-18.9,5.3-4.5,12.17-6.75,20.6-6.75s14.04,2.31,18.05,6.93c4.02,4.62,5.41,10.86,4.2,18.72l-2.92,17.87c-1.3,8.18-4.6,14.53-9.91,19.03-5.31,4.5-12.13,6.74-20.48,6.74ZM2862.8,770.31c4.54,0,8.27-1.28,11.19-3.83s4.74-6.3,5.47-11.24l2.8-17.87c.73-4.86.08-8.59-1.95-11.18-2.02-2.59-5.3-3.89-9.84-3.89s-8.27,1.3-11.19,3.89c-2.92,2.6-4.74,6.32-5.47,11.18l-2.8,17.87c-.73,4.94-.09,8.69,1.94,11.24s5.31,3.83,9.85,3.83Z"/>
    <path class="cls-1" d="M2935,781.01c-8.11,0-14.26-2.33-18.47-6.99-4.22-4.66-5.71-10.92-4.5-18.78l2.8-17.87c1.22-8.1,4.58-14.4,10.09-18.9,5.51-4.5,12.56-6.75,21.15-6.75,7.87,0,13.88,2.13,18.05,6.38,4.18,4.26,5.82,9.91,4.92,16.96h-11.91c.32-4.05-.65-7.19-2.92-9.42-2.27-2.23-5.55-3.34-9.85-3.34-4.62,0-8.49,1.32-11.61,3.95-3.12,2.63-5.09,6.34-5.89,11.12l-2.8,17.87c-.73,4.86.04,8.59,2.31,11.18,2.27,2.6,5.71,3.89,10.33,3.89s8.05-1.09,11.01-3.28c2.95-2.19,4.88-5.31,5.77-9.36h12.03c-1.54,7.46-4.96,13.21-10.27,17.26-5.31,4.05-12.05,6.07-20.24,6.07Z"/>
    <path class="cls-1" d="M3006.97,781.01c-8.02,0-14.1-2.39-18.23-7.17-4.14-4.78-5.56-11.3-4.26-19.57l2.55-15.8c1.38-8.51,4.78-15.09,10.21-19.75,5.43-4.66,12.36-6.99,20.79-6.99,5.18,0,9.64.94,13.38,2.8,3.72,1.87,6.48,4.44,8.26,7.72,1.78,3.28,2.35,7.03,1.7,11.24-.89,5.35-3.08,9.38-6.56,12.09s-7.98,4.07-13.49,4.07h-24.31l-.85,5.59c-.82,4.86-.09,8.67,2.19,11.43,2.27,2.75,5.71,4.13,10.33,4.13,3.81,0,7.1-.73,9.85-2.19s4.62-3.48,5.59-6.08h11.91c-1.7,5.92-5.09,10.48-10.15,13.68-5.06,3.2-11.37,4.8-18.9,4.8ZM2998.46,740.53h23.59c1.78,0,3.32-.52,4.62-1.58,1.3-1.05,2.14-2.84,2.56-5.35.57-3.65-.33-6.58-2.68-8.81-2.35-2.23-5.71-3.35-10.09-3.35-4.79,0-8.72,1.38-11.79,4.14-3.09,2.75-4.98,6.68-5.71,11.79l-.49,3.16Z"/>
    <path class="cls-1" d="M3077.35,780.77c-7.53,0-13.14-1.7-16.83-5.1-3.69-3.41-5.09-8.18-4.2-14.35h11.92c-.41,2.92.3,5.21,2.13,6.87,1.82,1.66,4.68,2.49,8.56,2.49h5.35c3.89,0,7.05-.85,9.48-2.55,2.43-1.7,3.89-4.09,4.38-7.17.89-5.35-1.3-8.39-6.56-9.12l-17.5-2.56c-4.7-.73-8.09-2.69-10.15-5.89-2.07-3.2-2.74-7.35-2.01-12.46.97-6.16,3.71-10.86,8.2-14.1,4.5-3.24,10.48-4.86,17.93-4.86h5.47c6.73,0,11.93,1.6,15.61,4.8,3.69,3.2,5.25,7.52,4.68,12.95h-12.04c.16-2.27-.63-4.15-2.37-5.65-1.74-1.5-4.24-2.25-7.48-2.25h-5.47c-3.65,0-6.56.81-8.75,2.43s-3.53,3.81-4.02,6.56c-.73,4.46,1.1,6.97,5.47,7.54l16.4,2.43c11.51,1.54,16.25,8.27,14.23,20.18-2.11,13.21-11.14,19.81-27.1,19.81h-5.35Z"/>
    <path class="cls-1" d="M3150.28,780.77c-7.53,0-13.14-1.7-16.83-5.1-3.69-3.41-5.09-8.18-4.2-14.35h11.92c-.41,2.92.3,5.21,2.13,6.87,1.82,1.66,4.68,2.49,8.56,2.49h5.35c3.89,0,7.05-.85,9.48-2.55,2.43-1.7,3.89-4.09,4.38-7.17.89-5.35-1.3-8.39-6.56-9.12l-17.5-2.56c-4.7-.73-8.09-2.69-10.15-5.89-2.07-3.2-2.74-7.35-2.01-12.46.97-6.16,3.71-10.86,8.2-14.1,4.5-3.24,10.48-4.86,17.93-4.86h5.47c6.73,0,11.93,1.6,15.61,4.8,3.69,3.2,5.25,7.52,4.68,12.95h-12.04c.16-2.27-.63-4.15-2.37-5.65-1.74-1.5-4.24-2.25-7.48-2.25h-5.47c-3.65,0-6.56.81-8.75,2.43-2.19,1.62-3.53,3.81-4.02,6.56-.73,4.46,1.1,6.97,5.47,7.54l16.4,2.43c11.51,1.54,16.25,8.27,14.23,20.18-2.11,13.21-11.14,19.81-27.1,19.81h-5.35Z"/>
    <path class="cls-1" d="M3199.14,779.79l1.7-10.94h23.59l7.17-44.98h-20.67l1.83-10.94h32.34l-8.76,55.92h22.01l-1.7,10.94h-57.5ZM3240.47,701.14c-2.84,0-4.92-.71-6.26-2.13-1.33-1.42-1.84-3.34-1.52-5.77.41-2.51,1.52-4.5,3.35-5.95s4.11-2.19,6.87-2.19,4.94.73,6.31,2.19c1.38,1.46,1.86,3.44,1.46,5.95-.4,2.43-1.52,4.36-3.34,5.77-1.83,1.42-4.12,2.13-6.87,2.13Z"/>
    <path class="cls-1" d="M3273.17,779.79l10.58-66.86h11.92l-2.07,12.76h.24c1.22-4.38,3.59-7.8,7.11-10.27s7.84-3.71,12.95-3.71c6.64,0,11.61,2.11,14.89,6.32,3.29,4.21,4.36,9.89,3.23,17.02l-7.05,44.73h-12.04l6.81-42.79c.73-4.86.08-8.59-1.95-11.18-2.02-2.59-5.15-3.89-9.36-3.89s-7.92,1.36-10.88,4.07c-2.96,2.72-4.84,6.5-5.65,11.36l-6.68,42.43h-12.04Z"/>
    <path class="cls-1" d="M3351.21,801.68l1.71-10.7h18.84c3.65,0,6.73-1.03,9.24-3.1,2.51-2.06,4.05-4.88,4.62-8.45l.85-5.59,2.07-11.54c-1.46,4.13-3.93,7.33-7.41,9.6s-7.66,3.41-12.52,3.41c-6.89,0-11.98-2.21-15.26-6.63-3.28-4.41-4.32-10.47-3.1-18.17l2.19-13.74c1.13-7.7,4.08-13.8,8.81-18.3,4.74-4.5,10.56-6.75,17.45-6.75,4.69,0,8.43,1.14,11.18,3.41s4.26,5.39,4.5,9.36h.12l1.83-11.55h11.79l-10.57,66.61c-1.06,6.81-4.06,12.2-9,16.17-4.94,3.97-11.1,5.96-18.47,5.96h-18.85ZM3373.95,765.21c4.3,0,7.92-1.34,10.88-4.02,2.96-2.67,4.8-6.44,5.53-11.3l1.94-12.52c.73-4.78.06-8.51-2-11.18-2.07-2.67-5.25-4.01-9.55-4.01s-8.1,1.28-10.94,3.83c-2.83,2.55-4.62,6.02-5.35,10.39l-2.31,14.59c-.65,4.38.03,7.84,2.06,10.39s5.27,3.83,9.73,3.83Z"/>
  </g>
  <path class="cls-1" d="M404.06,531.47c11.96,6.75,8.52,32.39,3.81,35.54-26.2-.29-202.19,4.1-211.97,0-15.96-6.69-14.69-30.36,1.27-35.54,25.32,3.91,197.88-5.09,206.89,0Z"/>
  <path class="cls-1" d="M423.1,619.05c10.87,8.53,8.76,22.69-1.27,30.46-3.08,2.39-68.46,28.93-72.35,29.19-16.62,1.12-30.64-20.43-13.96-34.27,3.58-2.97,77.8-33.06,87.58-25.39Z"/>
  <path class="cls-1" d="M424.37,450.24c10.68,9.3,3.41,28.14-7.62,31.73-4.99,1.62-81.87-27.2-85.04-30.46-7.93-8.16-3.67-23.65,5.08-29.19,7.32-4.64,84.07,24.87,87.58,27.92Z"/>
  <path class="cls-1" d="M455.18,321.02c4.82,3.16,36.59,76.24,36.81,82.5.53,15.41-26.47,18.04-29.19,16.5-4.3-2.43-37.7-81.93-31.73-91.39,4.18-6.63,16.7-12.48,24.12-7.62Z"/>
  <path class="cls-1" d="M480.57,679.04c1.38.84,9.37,8.82,10.15,10.15,4.12,6.97-27.8,86.75-38.08,90.12-8.13,2.66-21.19-6.11-24.12-15.23-1.31-4.09,27.71-76.67,30.46-79.96,4.69-5.63,14.99-9.07,21.58-5.08Z"/>
  <path class="cls-1" d="M654.46,680.31c3.24,2.65,31.17,73.28,31.73,77.43,2.48,18.38-16.22,26.09-25.39,20.31-8.59-5.42-37.65-83.28-35.54-87.58,3.78-7.69,20.78-17.02,29.19-10.15Z"/>
  <path class="cls-1" d="M925.01,542.84c11.72,6.58,16.03,27.76-3.81,35.54-9.51,3.73-178.16-2.86-204.35,0-13.5-10.85-16.73-25.57-2.54-36.81,25.88,2.62,201.51-3.89,210.7,1.27Z"/>
  <path class="cls-1" d="M869.11,542.84c11.72,6.58,16.03,27.76-3.81,35.54-9.51,3.73-178.16-2.86-204.35,0-13.5-10.85-16.73-25.57-2.54-36.81,25.88,2.62,201.51-3.89,210.7,1.27Z"/>
  <path class="cls-1" d="M1876.53,542.84c11.72,6.58,16.03,27.76-3.81,35.54-9.51,3.73-178.16-2.86-204.35,0-13.5-10.85-16.73-25.57-2.54-36.81,25.88,2.62,201.51-3.89,210.7,1.27Z"/>
  <path class="cls-1" d="M925.01,522.64c11.72,6.58,16.03,27.76-3.81,35.54-9.51,3.73-178.16-2.86-204.35,0-13.5-10.85-16.73-25.57-2.54-36.81,25.88,2.62,201.51-3.89,210.7,1.27Z"/>
  <path class="cls-1" d="M1876.53,522.64c11.72,6.58,16.03,27.76-3.81,35.54-9.51,3.73-178.16-2.86-204.35,0-13.5-10.85-16.73-25.57-2.54-36.81,25.88,2.62,201.51-3.89,210.7,1.27Z"/>
  <path class="cls-1" d="M2072,542.84c11.72,6.58,16.03,27.76-3.81,35.54-9.51,3.73-178.16-2.86-204.35,0-13.5-10.85-16.73-25.57-2.54-36.81,25.88,2.62,201.51-3.89,210.7,1.27Z"/>
  <path class="cls-1" d="M2250.01,542.84c11.72,6.58,16.03,27.76-3.81,35.54-9.51,3.73-178.16-2.86-204.35,0-13.5-10.85-16.73-25.57-2.54-36.81,25.88,2.62,201.51-3.89,210.7,1.27Z"/>
  <path class="cls-1" d="M2452.85,542.84c11.72,6.58,16.03,27.76-3.81,35.54-9.51,3.73-178.16-2.86-204.35,0-13.5-10.85-16.73-25.57-2.54-36.81,25.88,2.62,201.51-3.89,210.7,1.27Z"/>
  <path class="cls-1" d="M2072,522.64c11.72,6.58,16.03,27.76-3.81,35.54-9.51,3.73-178.16-2.86-204.35,0-13.5-10.85-16.73-25.57-2.54-36.81,25.88,2.62,201.51-3.89,210.7,1.27Z"/>
  <path class="cls-1" d="M2250.01,522.64c11.72,6.58,16.03,27.76-3.81,35.54-9.51,3.73-178.16-2.86-204.35,0-13.5-10.85-16.73-25.57-2.54-36.81,25.88,2.62,201.51-3.89,210.7,1.27Z"/>
  <path class="cls-1" d="M2452.85,522.64c11.72,6.58,16.03,27.76-3.81,35.54-9.51,3.73-178.16-2.86-204.35,0-13.5-10.85-16.73-25.57-2.54-36.81,25.88,2.62,201.51-3.89,210.7,1.27Z"/>
  <path class="cls-1" d="M3046.08,540.83h-2.37v-.09c.79,0,1.58,0,2.37.09Z"/>
  <path class="cls-1" d="M3046.08,540.83h-2.37v-.09c.79,0,1.58,0,2.37.09Z"/>
  <path class="cls-1" d="M3046.08,540.83h-2.37v-.09c.79,0,1.58,0,2.37.09Z"/>
  <path class="cls-1" d="M3091.67,542.14h-.7c.09-.35.17-.7.09-1.05h.35c.09.35.17.7.26,1.05Z"/>
  <path class="cls-1" d="M3091.67,542.14h-.7c.09-.35.17-.7.09-1.05h.35c.09.35.17.7.26,1.05Z"/>
  <path class="cls-1" d="M3112.06,577.81c-2.9.09-5.36.18-7.29.35.35-.09.62-.18.88-.35h6.41Z"/>
  <path class="cls-1" d="M3046.08,540.83h-2.37v-.09c.79,0,1.58,0,2.37.09Z"/>
  <path class="cls-1" d="M3500.29,549.88c6.24-9.58,1.58-22.4-7.03-27.24-7.56-4.22-127.57-.61-184.41-.61-8.35-1.49-36.02-1.58-68.79-1.32h-1.32c-31.8-.53-87.86.62-130.73,1.05-.26.09-.44,0-.62,0-1.76,0-3.25-.09-4.57-.18h-.53c-.7-.09-1.32-.09-1.93-.18-8.08-.62-21.7-.79-38.22-.79h-16.08c-36.99-.26-95.06,1.05-134.95,1.32h-.18c-5.97-.09-10.63-.26-13.44-.53-.26.18-.44.35-.7.62-10.1,0-18.1-.09-23.28-.35-.18-.09-.35-.09-.53-.09-24.6-2.46-122.56.26-175.01.44-9.75-1.67-44.02-1.67-82.32-1.23-27.5-.7-78.72.26-121.68.88h-.88c-1.32-.09-2.46-.18-3.43-.26-.09.09-.18.18-.26.26-14.5.18-27.85.35-38.83.35h-.26c-22.75-3.87-175.97,1.58-206.2-.53-.79-.09-1.4-.09-2.02-.18-28.2-2.02-122.21.53-172.9.62h-.09c-21.96-3.43-152.43.79-196.45-.18-22.14-2.81-128.8.26-181.07.18-23.72-3.78-175.89,1.58-206.02-.44-.79-.09-1.41-.09-2.02-.18-28.2-2.02-122.12.53-172.81.62h-.18c-20.12-3.16-129.15.09-182.04,0-24.25-3.87-183.44,1.84-207.95-.62-.18.09-.35.26-.44.35-11.33-1.23-39.8-1.23-72.22-.88h-.79c-24.69-.62-65.89.09-103.76.53,46.56-28.73,90.93-60.97,130.73-99.63,73.45-71.07,177.82-241.43,93.65-334.64-36.02-32.42-86.01-32.24-130.03-32.86-94.18-3.25-188.19,19.77-272.18,58.07-165.7,77.05-381.38,228.16-462.03,395.35-63.61,133.8-50.96,266.99,83.2,349.14,21.08,14.85,49.64,5.01,53.24-21.17,2.11-17.57-10.46-33.47-28.03-35.58-68.44-24.78-116.5-93.21-109.21-167.72,10.54-162.97,140.92-283.6,266.64-373.3,128.09-89.7,277.01-174.39,437.35-169.56,35.93,2.11,80.21,1.23,112.1,15.99,33.47,14.58,33.3,48.5,28.55,79.77-9.75,52.36-44.98,102.88-81.88,142.59-64.31,66.95-151.38,102.7-239.85,131.43-10.01-7.56-21-13.18-32.51-16.87-.26,11.33-.53,22.75-.62,33.47l-.09.09c-.09,6.59-.09,12.91-.18,18.71,4.04,2.46,7.91,5.53,11.42,9.05,18.71,18.71,23.63,46.12,14.58,69.32-3.16,8.17-8,15.81-14.58,22.4-25.3,25.3-66.33,25.3-91.72,0-25.3-25.3-25.3-66.42,0-91.72,2.64-2.55,5.36-4.92,8.26-6.94-.09-12.21.18-29.26.62-53.59-15.46,5.45-30.05,14.32-42.35,26.71-44.02,44.02-44.02,115.35,0,159.37,17.4,17.48,39.18,28.03,61.76,31.63.35,8.26.18,25.21-.26,45.95,0,.09-.09.09,0,.18-.09,6.76-.26,13.88-.35,21.17v.53c-1.32,56.84-3.07,127.04-.7,133.1,7.12,18.1,32.51,15.37,36.81,5.1-1.58-10.63-1.06-46.21-.18-85.22v-.26c.35-13.79.7-28.03.97-41.64.09-.18.09-.44,0-.7.79-35.76,1.32-67.65-.09-78.28,22.58-3.69,44.1-14.14,61.5-31.54,14.76-14.67,24.51-32.51,29.34-51.31,10.45-.44,28.2-.35,48.94-.09,2.46.09,4.92.09,7.47.09h.61c48.06.7,108.15,2.28,131.52,1.41h2.2c32.95.44,59.57.44,63.17-.97.44-.18.79-.35,1.23-.53.18.18.44.35.62.53,26.18-2.81,194.86,3.78,204.35,0,.53-.18,1.05-.44,1.49-.7,54.47-.18,172.81,3.87,180.72.7.53-.18,1.05-.44,1.49-.7,56.05,0,168.77,3.78,176.59.7.09-.09.26-.09.35-.18h.09c31.89-2.37,193.11,3.87,202.33.18.53-.18,1.06-.44,1.49-.7,54.47-.18,172.81,3.87,180.72.7.35-.18.79-.35,1.14-.53,44.63-1.23,185.64,3.95,194.34.53.53-.18,1.06-.44,1.5-.7,56.05,0,168.77,3.78,176.5.7.09-.09.26-.09.35-.18,31.45-2.37,193.19,3.87,202.51.18.53-.18,1.05-.44,1.49-.7,11.42-.09,25.74.09,41.2.35.18.09.26.26.44.35,1.06-.09,2.37-.18,3.87-.26,49.29.7,109.03,2.2,128.88,1.05h.35c36.64.53,67.38.79,71.25-.79.53-.18,1.06-.44,1.49-.7,56.05,0,168.77,3.78,176.59.7.09-.09.26-.09.35-.18h.09c5.1-.35,13.62-.53,24.25-.53.26.26.53.44.79.7,2.99-.35,8-.53,14.41-.62h2.11c45.16.35,111.05,2.2,142.77,1.76h2.2c23.11.18,40.06,0,42.87-1.14.09-.09.26-.09.35-.18.35-.09.62-.18.88-.35h6.41c48.32.7,111.93,2.37,137.06,1.58,30.66.35,54.73.26,58.16-1.05.53-.18,1.06-.44,1.49-.7,54.47-.18,172.72,3.87,180.72.7,14.94-5.8,16.17-19.33,10.81-28.47Z"/>
  <path class="cls-1" d="M780.37,645.71c10.57,8.42,9.65,23.27-1.27,30.46-6.7,4.41-86.59-24.71-90.12-27.92-7.66-6.98,4.99-22.33,6.35-30.46,5.24-5.02,81.47,25.08,85.04,27.92Z"/>
  <path class="cls-1" d="M676.03,321.02c1.32.78,9.4,8.86,10.15,10.15,4.07,6.95-28.88,87.52-33,90.12-3.44,2.17-27.6-1.16-30.46-13.96-1.05-4.68,30.35-80.83,39.35-86.31,2.66-1.62,11.27-1.59,13.96,0Z"/>
  <g>
    <path class="cls-1" d="M1353.2,271.57c0-90.06,67.46-156.06,158.98-156.06,81.68,0,136.37,49.23,148.4,111.94h-67.09c-6.92-28.44-37.18-51.05-79.85-51.05-53.97,0-94.08,39.75-94.08,95.17s40.11,95.17,94.08,95.17c42.67,0,77.67-28.08,82.77-55.06h67.09c-9.11,59.8-68.91,115.95-151.32,115.95-91.52,0-158.98-66-158.98-156.06Z"/>
    <path class="cls-1" d="M1968.02,123.16l-117.41,297.18h-71.47l-117.41-297.18h75.11l80.95,218.78,80.58-218.78h69.65Z"/>
    <path class="cls-1" d="M2220.75,212.86h-68.55c-4.01-25.89-23.34-41.57-55.06-41.57s-48.13,12.4-48.13,30.26c0,22.24,22.97,29.9,80.94,41.93,68.55,14.22,91.89,48.13,91.89,92.62,0,56.88-53.6,91.52-119.96,91.52-73.29,0-126.89-39.75-129.81-103.19h68.19c3.64,28.44,28.43,47.4,66.36,47.4,26.99,0,47.04-13.49,47.04-32.82,0-23.7-20.05-33.18-72.93-43.03-64.54-12.03-99.55-38.65-99.55-94.44s53.25-85.69,120.34-85.69,115.95,40.47,119.23,96.99Z"/>
    <path class="cls-1" d="M2260.9,123.16h114.13c77.3,0,122.52,43.03,122.52,108.66s-45.21,109.39-122.52,109.39h-47.76v79.13h-66.36V123.16ZM2372.11,282.51c36.83,0,59.08-17.5,59.08-50.68s-22.25-49.96-59.08-49.96h-44.85v100.64h44.85Z"/>
    <path class="cls-1" d="M2701.8,123.16v238.47h148.4v58.71h-214.77V123.16h66.36Z"/>
    <path class="cls-1" d="M2869.56,313.5c0-64.91,42.67-111.94,103.93-111.94,28.08,0,48.5,9.85,61.26,26.98v-21.88h64.91v213.68h-64.91v-21.88c-12.76,17.14-33.18,26.98-61.26,26.98-61.26,0-103.93-47.04-103.93-111.94ZM3035.83,313.5c0-32.82-20.42-56.52-52.14-56.52s-50.68,23.7-50.68,56.52,19.68,56.52,50.68,56.52,52.14-23.7,52.14-56.52Z"/>
    <path class="cls-1" d="M3213.45,398.46v21.88h-64.9V114.05h64.9v114.5c12.77-17.14,33.19-26.98,61.26-26.98,61.26,0,103.93,47.04,103.93,111.94s-42.67,111.94-103.93,111.94c-28.07,0-48.49-9.85-61.26-26.98ZM3315.18,313.5c0-32.82-19.69-56.52-50.69-56.52s-52.14,23.7-52.14,56.52,20.42,56.52,52.14,56.52,50.69-23.7,50.69-56.52Z"/>
  </g>
  <rect class="cls-2" x="-81.16" y="-100.78" width="3775.59" height="1170.64"/>
  <path class="cls-1" d="M576.87,366.61c-.31,20.83-.91,42.99-1.41,64.05h-.53c.18,2.2.26,4.13.44,5.62-.35,23.41-1.13,47.86-.65,70.82.75,20.69-29.12,28.05-35.98,8.08-2.42-14.5-.55-62.57-.44-84.08l.09-.09c0-.09,0-.18-.09-.26v-.26c-2.8-17.74,2.95-159.93,1.67-201.01,1.41-9.4,19.68-14.58,26.71-10.19,4.39,3.19,10.14,10.03,9.98,16.39,1,17.44.03,60.09-.31,78.4l-.09-.09v.26s.09,0,.09.09c1.33,17.15.72,32.04.53,52.27Z"/>
</svg>