<?xml version="1.0" encoding="utf-8"?>
<!-- Generator: Adobe Illustrator 27.7.0, SVG Export Plug-In . SVG Version: 6.00 Build 0)  -->
<svg version="1.1" xmlns="http://www.w3.org/2000/svg" xmlns:xlink="http://www.w3.org/1999/xlink" x="0px" y="0px"
	 viewBox="0 0 101.57 32.62" style="enable-background:new 0 0 101.57 32.62;" xml:space="preserve">
<style type="text/css">
  @media (prefers-color-scheme:dark){:root{filter:invert(100%)}}
	.st0{fill:#4D4D4D;}
	.st1{fill:#2B57A6;}
	.st2{display:none;}
	.st3{display:inline;}
	.st4{fill:#FFFFFF;stroke:#000000;stroke-miterlimit:10;}
</style>
<g id="레이어_1">
	<g>
		<polygon class="st0" points="-67.37,48.85 -72.28,57.36 -119.68,-24.74 -109.86,-24.74 		"/>
		<polygon class="st0" points="-21.89,-24.74 -26.79,-16.24 -38.36,-16.24 -69.71,38.05 -74.62,29.55 -48.18,-16.24 -101.06,-16.24 
			-105.97,-24.74 		"/>
		<polygon class="st0" points="-39.56,13.83 -44.47,22.33 -78.78,22.33 -89.46,3.83 -72.97,-24.74 -63.14,-24.74 -79.64,3.83 
			-73.87,13.83 		"/>
	</g>
	<g>
		<g>
			<polygon class="st1" points="20.61,28.47 18.78,31.65 1.06,0.97 4.73,0.97 			"/>
			<polygon class="st1" points="37.61,0.97 35.78,4.15 31.45,4.15 19.74,24.44 17.9,21.26 27.78,4.15 8.02,4.15 6.19,0.97 			"/>
			<polygon class="st1" points="31.01,15.38 29.17,18.56 16.35,18.56 12.36,11.65 18.52,0.97 22.19,0.97 16.03,11.65 18.18,15.38 
							"/>
		</g>
		<g>
			<path class="st1" d="M35.89,11.49h8V13H40.8v8.52H39V13h-3.1V11.49z"/>
			<path class="st1" d="M44.44,14h1.72v1.25h0.08c0.13-0.42,0.36-0.76,0.7-1c0.34-0.24,0.72-0.36,1.16-0.36
				c0.26,0,0.47,0.01,0.64,0.04v1.64c-0.08-0.03-0.2-0.05-0.36-0.08c-0.16-0.02-0.31-0.04-0.46-0.04c-0.32,0-0.61,0.07-0.87,0.21
				s-0.46,0.33-0.61,0.58c-0.15,0.25-0.22,0.53-0.22,0.85v4.44h-1.77V14z"/>
			<path class="st1" d="M50.18,12.8c-0.16-0.09-0.29-0.2-0.38-0.35c-0.09-0.15-0.14-0.31-0.14-0.49c0-0.17,0.05-0.33,0.14-0.48
				s0.22-0.26,0.38-0.35c0.16-0.09,0.33-0.13,0.51-0.13c0.19,0,0.36,0.04,0.51,0.13c0.16,0.09,0.28,0.2,0.37,0.35
				c0.09,0.15,0.14,0.31,0.14,0.48c0,0.18-0.05,0.34-0.14,0.49c-0.09,0.15-0.22,0.27-0.37,0.35c-0.16,0.09-0.33,0.13-0.51,0.13
				C50.51,12.93,50.34,12.89,50.18,12.8z M49.79,14h1.77v7.53h-1.77V14z"/>
			<path class="st1" d="M53.34,11.49h6.43V13h-4.63v2.74h4.19v1.51h-4.19v4.27h-1.8V11.49z"/>
			<path class="st1" d="M65.55,14h1.76v7.53H65.6v-1.33h-0.08c-0.18,0.43-0.47,0.78-0.86,1.04c-0.39,0.26-0.86,0.39-1.4,0.39
				c-0.49,0-0.93-0.11-1.31-0.33c-0.38-0.22-0.67-0.55-0.89-0.97c-0.21-0.42-0.32-0.93-0.33-1.52V14h1.77v4.52
				c0,0.31,0.06,0.59,0.18,0.83c0.12,0.24,0.28,0.42,0.5,0.55s0.46,0.19,0.75,0.19c0.27,0,0.53-0.07,0.77-0.2
				c0.25-0.13,0.45-0.33,0.6-0.59c0.16-0.26,0.23-0.57,0.23-0.94V14z"/>
			<path class="st1" d="M70.78,21.52H69V11.49h1.77V21.52z"/>
			<path class="st1" d="M74.24,21.52h-1.77V11.49h1.77V21.52z"/>
			<path class="st1" d="M76.02,11.49h1.8v4.62h0.14l3.92-4.62h2.2l-3.88,4.51l3.92,5.53h-2.18l-3.01-4.31l-1.12,1.32v2.99h-1.8
				V11.49z"/>
			<path class="st1" d="M86.01,12.8c-0.16-0.09-0.29-0.2-0.38-0.35c-0.09-0.15-0.14-0.31-0.14-0.49c0-0.17,0.05-0.33,0.14-0.48
				s0.22-0.26,0.38-0.35c0.16-0.09,0.33-0.13,0.51-0.13c0.19,0,0.36,0.04,0.51,0.13c0.16,0.09,0.28,0.2,0.37,0.35
				c0.09,0.15,0.14,0.31,0.14,0.48c0,0.18-0.05,0.34-0.14,0.49c-0.09,0.15-0.22,0.27-0.37,0.35c-0.16,0.09-0.33,0.13-0.51,0.13
				C86.34,12.93,86.17,12.89,86.01,12.8z M85.62,14h1.77v7.53h-1.77V14z"/>
			<path class="st1" d="M89.09,14h1.69v1.28h0.1c0.15-0.43,0.41-0.77,0.77-1.01c0.36-0.24,0.79-0.36,1.29-0.36
				c0.51,0,0.94,0.12,1.29,0.36c0.35,0.24,0.6,0.58,0.75,1.01h0.08c0.17-0.42,0.45-0.75,0.85-1c0.4-0.25,0.87-0.37,1.41-0.37
				c0.46,0,0.87,0.1,1.22,0.29s0.63,0.49,0.82,0.87s0.29,0.85,0.29,1.4v5.06H97.9v-4.78c0-0.45-0.12-0.79-0.36-1.02
				c-0.24-0.23-0.55-0.34-0.93-0.34c-0.43,0-0.77,0.13-1.01,0.4c-0.24,0.27-0.36,0.61-0.36,1.04v4.7h-1.72v-4.85
				c0-0.25-0.05-0.48-0.16-0.68s-0.26-0.35-0.45-0.45c-0.19-0.11-0.41-0.16-0.66-0.16c-0.25,0-0.49,0.07-0.7,0.2
				c-0.21,0.13-0.38,0.32-0.5,0.55c-0.12,0.24-0.19,0.51-0.19,0.81v4.57h-1.77V14z"/>
		</g>
	</g>
</g>
<g id="레이어_2" class="st2">
	<g class="st3">
		
			<rect x="-86.88" y="-79.09" transform="matrix(-1.836970e-16 1 -1 -1.836970e-16 -97.777 67.483)" class="st4" width="8.5" height="127.89"/>
		
			<rect x="-105.46" y="-52.41" transform="matrix(0.866 -0.5 0.5 0.866 -20.8554 -48.6494)" class="st4" width="8.5" height="134.01"/>
		
			<rect x="-68.3" y="-50.59" transform="matrix(-0.866 -0.5 0.5 -0.866 -126.8172 -4.7965)" class="st4" width="8.5" height="130.37"/>
		
			<rect x="-49.91" y="-50.59" transform="matrix(-0.866 -0.5 0.5 -0.866 -92.4986 4.3992)" class="st4" width="8.5" height="130.37"/>
		
			<rect x="-73.17" y="-131.9" transform="matrix(-1.836970e-16 1 -1 -1.836970e-16 -52.0609 85.7669)" class="st4" width="8.5" height="297.5"/>
		
			<rect x="-91.74" y="-52.41" transform="matrix(0.866 -0.5 0.5 0.866 -19.0178 -41.7914)" class="st4" width="8.5" height="134.01"/>
		
			<rect x="-105.59" y="-115.24" transform="matrix(-0.866 -0.5 0.5 -0.866 -196.39 -23.4384)" class="st4" width="8.5" height="259.66"/>
	</g>
</g>
</svg>
