<?xml version="1.0" encoding="UTF-8"?>
<svg id="_레이어_1" data-name="레이어 1" xmlns="http://www.w3.org/2000/svg" viewBox="0 0 1080 1080">
  <defs>
    <style>
      .cls-1 {
        fill: #fff;
        stroke-width: 0px;
      }
    </style>
  </defs>
  <path class="cls-1" d="M226.54,385.33h141.19l10.54-93.77h-140.14l18.97-154.89-115.9,18.97-16.86,135.93H10.54L0,385.33h112.74l-53.74,447.8c-14.75,123.28,37.93,162.27,139.08,162.27,24.23,0,66.38-3.16,95.89-13.7l10.53-86.4c-15.81,3.16-38.98,7.38-65.33,7.38-59,0-70.59-24.24-64.27-82.19l51.63-435.16Z"/>
  <path class="cls-1" d="M587.82,823.05h-113.75l-24.59,201.42h-113.19l24.28-201.42h-140.61l11.11-94h140.61l52.22-435.05c6.69-57.57-5.4-82.27-64.31-82.27-26.55,0-49.49,4.89-64.98,7.61l9.78-85.97c29.33-11.27,72.34-14.25,95.9-14.25,101.56,0,154.24,39.46,139.32,162.58l-53.56,447.34h112.88l-11.11,94Z"/>
  <path class="cls-1" d="M1080,102.95l-10.53,86.4c-14.75-6.32-35.83-16.86-61.11-23.18-57.95-13.7-74.81,7.38-82.18,65.33l-48.47,402.5h86.4l-10.54,94.83-17.91,150.67-8.43,76.92h-114.85l5.27-46.36,3.16-30.56,17.91-150.67h-169.64l-16.86,150.67-4.21,30.56-7.38,63.22-3.16,30.55h-114.85l10.53-93.77,96.93-834.5,118.02-20.02-67.44,578.46h83.24l52.68-442.54c14.75-123.28,74.81-148.57,173.86-124.33,23.18,5.27,64.27,17.91,89.56,35.82Z"/>
</svg>